<svg xmlns="http://www.w3.org/2000/svg" xmlns:xlink="http://www.w3.org/1999/xlink" id="Layer_1" x="0px" y="0px" viewBox="0 0 226.75 55.05" style="enable-background:new 0 0 226.75 55.05;" xml:space="preserve">
<style type="text/css">
	.st0{fill:#FFFFFF;}
</style>
<g>
	<path class="st0" d="M19.58,2.2c2.87-1.24,5.9-2.04,9.13-2.2c0.37-0.02,0.79,0.1,0.81,0.44l0.5,6.92c0.02,0.34-0.12,0.74-0.49,0.78   c-2.37,0.29-4.44,0.77-6.67,1.66c-0.34,0.14-0.67-0.12-0.82-0.44l-2.96-6.38C18.95,2.67,19.24,2.35,19.58,2.2"></path>
	<path class="st0" d="M8.43,9.69c2.13-2.26,4.59-4.19,7.48-5.61c0.33-0.16,0.77-0.22,0.93,0.08l3.26,6.15   c0.16,0.31,0.18,0.72-0.14,0.91c-2.05,1.19-3.76,2.46-5.44,4.14c-0.26,0.26-0.67,0.15-0.93-0.08L8.3,10.6   C8.04,10.36,8.18,9.96,8.43,9.69"></path>
	<path class="st0" d="M1.49,21.21c0.91-2.95,2.27-5.73,4.25-8.26c0.23-0.29,0.59-0.53,0.87-0.32l5.65,4.13   c0.28,0.21,0.49,0.57,0.28,0.88c-1.33,1.96-2.3,3.83-3.07,6.07c-0.11,0.34-0.53,0.42-0.87,0.32l-6.84-1.94   C1.44,21.99,1.38,21.56,1.49,21.21"></path>
	<path class="st0" d="M24.36,17.26h20.95l-1.8,7.19L21.84,24.4C18.23,23.84,20.04,17.26,24.36,17.26"></path>
	<path class="st0" d="M21.93,28.11h20.95l-1.8,7.19l-21.67-0.05C15.79,34.68,17.61,28.11,21.93,28.11"></path>
	<path class="st0" d="M19.39,39.01h6.95l-1.8,7.19l-7.67-0.05C13.26,45.58,15.07,39.01,19.39,39.01"></path>
	<path class="st0" d="M0,33.04c0.02-3.07-0.09-4.65,0.6-7.71c0.08-0.36,0.35-0.68,0.69-0.62l6.8,1.27c0.34,0.06,0.65,0.35,0.59,0.71   c-0.4,2.4-0.33,4.07-0.31,6.32c0,0.36-0.34,0.61-0.69,0.61L0.6,33.73C0.23,33.76-0.01,33.41,0,33.04"></path>
	<path class="st0" d="M56.11,28.81v3.9c0,0.57,0.11,0.95,0.34,1.13c0.27,0.21,0.82,0.31,1.67,0.31h0.28v0.39h-9.49v-0.39   c0.96,0.04,1.85-0.06,2.14-0.3c0.22-0.18,0.33-0.56,0.33-1.14v-8.56c0-0.5-0.15-0.83-0.44-1.02c-0.32-0.19-0.91-0.28-1.75-0.24   v-0.38l14.95,0.02v3.5l-0.64-0.02c0.05-1.93-2.25-2.77-4.8-2.72l-2.58,0.05v4.79h0.76c0.97,0,2.06-0.31,2.53-0.69   c0.46-0.38,0.81-0.98,0.9-1.84h0.49v6.03h-0.49c-0.33-1.52-1.77-2.83-3.42-2.83h-0.78V28.81z M81.77,34.16v0.38h-9.42v-0.38   c0.86,0.02,1.87-0.06,2.12-0.26c0.26-0.19,0.39-0.58,0.39-1.18v-8.33c0-0.61-0.13-1-0.38-1.18s-1.27-0.26-2.13-0.25v-0.38h9.43   v0.38c-0.81-0.02-1.83,0.06-2.08,0.24c-0.25,0.18-0.38,0.58-0.38,1.19v8.33c0,0.6,0.13,1,0.38,1.18   C79.96,34.1,80.96,34.19,81.77,34.16z M89.99,34.58v-0.39c1.01,0.04,1.67-0.07,1.98-0.31c0.24-0.18,0.35-0.56,0.35-1.13v-8.53   c0-0.61-0.13-0.98-0.42-1.11c-0.24-0.12-0.88-0.17-1.92-0.15v-0.39h9.71c2.29,0,4.22,0.51,5.78,1.52c1.74,1.11,2.6,2.62,2.6,4.52   c0,1.71-0.72,3.11-2.16,4.19c-1.57,1.19-3.75,1.78-6.54,1.78L89.99,34.58L89.99,34.58z M97.35,23.29v9.55   c0,0.36,0.06,0.59,0.17,0.72c0.15,0.16,0.45,0.24,0.9,0.24c1.38,0,2.39-0.39,3.04-1.16c0.65-0.78,0.97-1.99,0.97-3.65   c0-3.79-1.41-5.69-4.25-5.69h-0.83V23.29z M131.87,34.54h-15.65v-0.39c0.89,0.04,1.69-0.07,1.95-0.3c0.21-0.18,0.32-0.55,0.32-1.13   V24.4c0-0.61-0.13-1-0.39-1.18c-0.28-0.2-0.89-0.29-1.81-0.27v-0.38h15.06v3.61h-0.52c-0.36-2.27-3-2.81-5.06-2.81h-2.54v4.76h0.32   c1.49,0,3.24-1.05,3.4-2.79h0.52v6.26h-0.52c-0.16-1.72-1.85-2.75-3.24-2.75h-0.54v3.85c0,0.33,0.02,0.56,0.06,0.67   c0.08,0.24,0.18,0.38,0.49,0.42c0.14,0.02,0.33,0.03,0.58,0.03h1.57c2.38,0,5.79-0.78,6.28-2.98h0.49L131.87,34.54z M157.12,34.58   h-16.26v-0.39h0.71c0.71,0,1.19-0.11,1.44-0.33c0.2-0.2,0.3-0.57,0.3-1.12v-8.35c0-0.62-0.14-1.02-0.42-1.2s-1.13-0.26-2.05-0.24   v-0.39h9.64v0.39l-1.12-0.01c-0.68,0-1.14,0.11-1.36,0.32c-0.19,0.18-0.29,0.56-0.29,1.13v8.46c0,0.47,0.11,0.77,0.33,0.87   c0.17,0.08,0.48,0.13,0.93,0.13h0.41c2.03,0,6.45,0.51,7.49-3.51l0.69-0.03L157.12,34.58z M196.26,34.5h-9.46v-0.45   c0.77,0.02,1.95-0.06,2.2-0.26c0.25-0.19,0.38-0.58,0.38-1.16V23.2h-1.19c-1.81,0-4.16,0.65-4.21,2.48h-0.5v-3.11h16.13v3.11h-0.51   c-0.03-0.83-0.68-1.52-1.2-1.96c-0.47-0.4-2.2-0.52-3-0.52h-1.24v9.43c0,0.59,0.12,0.98,0.36,1.15c0.24,0.18,1.45,0.27,2.24,0.27   V34.5z M219.58,29.58L219.54,33c0,0.47,0.32,0.82,0.58,1c0.29,0.19,1.47,0.25,2.24,0.23v0.38h-10.03v-0.38l1.01,0.01   c0.64,0,1.06-0.09,1.29-0.27c0.23-0.18,0.34-0.5,0.34-0.96v-2.95l-4.66-5.67c-0.41-0.51-0.85-0.92-1.09-1.08   c-0.23-0.16-0.84-0.29-1.4-0.36v-0.38h8.59v0.38c-0.86,0-1.64,0.15-1.64,0.45c0,0.11-0.12,0.31,0.1,0.58l3.96,4.85l4.07-4.16   c0.33-0.33,0.57-0.67,0.57-0.91c0-0.46-0.92-0.67-2.02-0.67v-0.38l5.3-0.04v0.38c-0.48,0.06-1.14,0.22-1.39,0.42   c-0.24,0.2-0.92,0.67-1.42,1.23L219.58,29.58z M175.24,34.15v0.38h-9.42v-0.38c0.85,0.02,1.87-0.06,2.13-0.26   c0.26-0.19,0.39-0.58,0.39-1.18v-8.33c0-0.61-0.13-1-0.38-1.18s-1.27-0.26-2.13-0.25v-0.38h9.44v0.38   c-0.82-0.02-1.83,0.06-2.08,0.24c-0.26,0.18-0.38,0.58-0.38,1.19v8.33c0,0.6,0.13,1,0.38,1.19   C173.43,34.09,174.43,34.17,175.24,34.15z"></path>
	<path class="st0" d="M45.96,3.82c2.95,1.55,5.47,3.35,7.5,5.59c0.25,0.27,0.42,0.67,0.16,0.9l-5.13,4.74   c-0.26,0.24-0.66,0.37-0.92,0.12c-1.72-1.63-3.41-2.91-5.51-4.05c-0.32-0.18-0.32-0.59-0.17-0.9l3.16-6.28   C45.19,3.63,45.63,3.65,45.96,3.82"></path>
	<path class="st0" d="M33,0.02c3.24,0.11,6.29,0.69,9.19,1.94c0.34,0.15,0.67,0.43,0.54,0.75l-2.62,6.44   c-0.13,0.32-0.43,0.61-0.78,0.49c-2.26-0.76-4.34-1.21-6.73-1.37c-0.37-0.02-0.55-0.4-0.54-0.75l0.16-7.01   C32.22,0.16,32.63,0.01,33,0.02"></path>
	<path class="st0" d="M1.35,37.95l7.17-0.01c0.41,0,0.82,0.03,0.95,0.41c2.03,5.92,5.57,9.46,9.89,12.37   c0.35,0.23,0.13,0.74-0.26,0.87c-2.65,0.89-5.01,2.03-7.25,3.39c-0.35,0.21-0.68-0.08-1.01-0.33c-4.98-3.96-7.96-9.46-9.83-15.82   C0.9,38.44,0.94,37.95,1.35,37.95"></path>
	<path class="st0" d="M220.81,45.33c0.02,0.08,0.03,0.18,0.04,0.29s0.01,0.17,0.01,0.18c0,0.56-0.22,1.02-0.67,1.38   c-0.41,0.32-0.9,0.49-1.48,0.49s-1.07-0.17-1.46-0.51c-0.44-0.38-0.66-0.93-0.66-1.62c0-0.13,0.01-0.27,0.03-0.41h1.3   c-0.01,0.15-0.01,0.28-0.01,0.41c0,0.37,0.08,0.65,0.25,0.84c0.15,0.17,0.35,0.26,0.58,0.26c0.21,0,0.4-0.07,0.56-0.2   c0.16-0.13,0.24-0.31,0.24-0.51c0-0.16-0.05-0.33-0.16-0.49c-0.1-0.16-0.28-0.34-0.53-0.52c-0.34-0.23-0.68-0.47-1.03-0.71   c-0.38-0.28-0.67-0.55-0.85-0.82c-0.24-0.34-0.36-0.73-0.36-1.16c0-0.55,0.19-0.98,0.56-1.3c0.37-0.31,0.82-0.47,1.34-0.47   c0.58,0,1.07,0.19,1.47,0.57c0.45,0.43,0.68,1.02,0.68,1.78h-1.23c0-0.42-0.08-0.73-0.26-0.95c-0.15-0.18-0.33-0.28-0.55-0.28   c-0.19,0-0.36,0.07-0.5,0.2c-0.14,0.13-0.22,0.29-0.22,0.46c0,0.12,0.03,0.24,0.1,0.36s0.18,0.24,0.34,0.36   c0.08,0.06,0.4,0.27,0.97,0.61c0.42,0.26,0.73,0.49,0.94,0.71C220.56,44.57,220.75,44.93,220.81,45.33 M210.36,47.49h-3.69v-6.85   h3.69v1.08h-2.39v1.58h2.16v1.01h-2.16v2.1h2.39V47.49z M200.27,45.03c0,0.7-0.08,1.24-0.24,1.6c-0.29,0.67-0.87,1.01-1.72,1.01   c-0.93,0-1.55-0.23-1.85-0.7c-0.26-0.39-0.38-1.15-0.38-2.27v-1.51c0-0.98,0.18-1.68,0.53-2.1c0.32-0.39,0.84-0.58,1.56-0.58   c0.76,0,1.32,0.2,1.65,0.61c0.3,0.35,0.45,0.9,0.45,1.63h-1.3c0-0.42-0.05-0.73-0.16-0.93s-0.27-0.3-0.49-0.3   c-0.31,0-0.53,0.1-0.67,0.3s-0.23,0.51-0.27,0.93v2.39c0,0.53,0.07,0.92,0.21,1.16s0.36,0.36,0.65,0.36c0.28,0,0.47-0.13,0.57-0.39   s0.16-0.66,0.16-1.21H200.27z M189.38,47.49h-1.3v-6.85h1.3V47.49z M181.81,40.64l-1.44,6.85h-1.73l-1.59-6.85h1.44l1.01,5.77   l0.95-5.77H181.81z M168.62,41.65h-0.94v1.95h0.86c0.29,0,0.52-0.11,0.7-0.33c0.16-0.19,0.24-0.43,0.24-0.71   c0-0.25-0.07-0.46-0.21-0.62C169.11,41.74,168.89,41.65,168.62,41.65z M171.01,47.49h-1.23c-0.18,0-0.29-0.2-0.33-0.6   c-0.02-0.18-0.03-0.36-0.03-0.56c0-0.1,0-0.23,0.01-0.39c0.01-0.17,0.01-0.25,0.01-0.26c0-0.34-0.06-0.59-0.18-0.75   c-0.17-0.22-0.48-0.33-0.93-0.33h-0.65v2.89h-1.3v-6.85h2.46c0.66,0,1.17,0.19,1.51,0.56c0.3,0.32,0.45,0.73,0.45,1.22   c0,0.39-0.1,0.74-0.29,1.06c-0.2,0.32-0.44,0.5-0.74,0.55c0.39,0.08,0.66,0.24,0.8,0.49c0.1,0.17,0.15,0.42,0.15,0.74   c0,0.06,0,0.12,0,0.18s0,0.12,0,0.17c0,0.5,0.02,0.9,0.05,1.2c0.03,0.31,0.11,0.46,0.24,0.46L171.01,47.49L171.01,47.49z    M159.98,47.49h-3.69v-6.85h3.69v1.08h-2.39v1.58h2.17v1.01h-2.17v2.1h2.39V47.49z M149.74,45.33c0.02,0.08,0.03,0.18,0.04,0.29   s0.01,0.17,0.01,0.18c0,0.56-0.22,1.02-0.67,1.38c-0.41,0.32-0.9,0.49-1.48,0.49s-1.07-0.17-1.46-0.51   c-0.44-0.38-0.66-0.93-0.66-1.62c0-0.13,0.01-0.27,0.03-0.41h1.3c-0.01,0.15-0.01,0.28-0.01,0.41c0,0.37,0.08,0.65,0.25,0.84   c0.15,0.17,0.35,0.26,0.58,0.26c0.21,0,0.4-0.07,0.56-0.2c0.16-0.13,0.24-0.31,0.24-0.51c0-0.16-0.05-0.33-0.16-0.49   c-0.1-0.16-0.28-0.34-0.53-0.52c-0.34-0.23-0.69-0.47-1.03-0.71c-0.38-0.28-0.67-0.55-0.85-0.82c-0.24-0.34-0.36-0.73-0.36-1.16   c0-0.55,0.19-0.98,0.56-1.3c0.37-0.31,0.82-0.47,1.34-0.47c0.58,0,1.07,0.19,1.47,0.57c0.45,0.43,0.68,1.02,0.68,1.78h-1.23   c0-0.42-0.08-0.73-0.26-0.95c-0.15-0.18-0.33-0.28-0.55-0.28c-0.19,0-0.36,0.07-0.5,0.2c-0.14,0.13-0.22,0.29-0.22,0.46   c0,0.12,0.03,0.24,0.1,0.36s0.18,0.24,0.34,0.36c0.08,0.06,0.4,0.27,0.97,0.61c0.42,0.26,0.73,0.49,0.94,0.71   C149.49,44.57,149.67,44.93,149.74,45.33z M127.38,40.64l-1.8,3.89v2.96h-1.3v-2.96l-1.81-3.89h1.51l0.95,2.73l1.01-2.73H127.38z    M116.85,41.62h-1.5v5.87h-1.28v-5.87h-1.5v-1.01h4.28V41.62z M106.29,47.49h-1.3v-6.85h1.3V47.49z M96.13,41.65h-0.94v1.95h0.86   c0.29,0,0.52-0.11,0.7-0.33c0.16-0.19,0.24-0.43,0.24-0.71c0-0.25-0.07-0.46-0.21-0.62C96.62,41.74,96.4,41.65,96.13,41.65z    M98.51,47.49h-1.23c-0.18,0-0.29-0.2-0.33-0.6c-0.02-0.18-0.03-0.36-0.03-0.56c0-0.1,0-0.23,0.01-0.39   c0.01-0.17,0.01-0.25,0.01-0.26c0-0.34-0.06-0.59-0.18-0.75c-0.17-0.22-0.48-0.33-0.93-0.33h-0.65v2.89h-1.3v-6.85h2.46   c0.66,0,1.17,0.19,1.51,0.56c0.3,0.32,0.45,0.73,0.45,1.22c0,0.39-0.1,0.74-0.29,1.06c-0.2,0.32-0.44,0.5-0.74,0.55   c0.39,0.08,0.66,0.24,0.8,0.49c0.1,0.17,0.15,0.42,0.15,0.74c0,0.06,0,0.12,0,0.18s0,0.12,0,0.17c0,0.5,0.02,0.9,0.05,1.2   c0.03,0.31,0.11,0.46,0.24,0.46V47.49z M87.12,45.69c0,0.63-0.23,1.14-0.68,1.5c-0.42,0.34-0.92,0.5-1.51,0.5   c-0.59,0-1.08-0.16-1.48-0.48c-0.45-0.35-0.67-0.84-0.67-1.46v-5.12h1.3v4.84c0,0.36,0.09,0.64,0.26,0.84   c0.17,0.2,0.38,0.3,0.61,0.3c0.24,0,0.44-0.1,0.61-0.29c0.17-0.2,0.25-0.48,0.25-0.84v-4.84h1.29v5.05H87.12z M76.38,45.03   c0,0.7-0.08,1.24-0.24,1.6c-0.29,0.67-0.87,1.01-1.72,1.01c-0.93,0-1.55-0.23-1.85-0.7c-0.26-0.39-0.39-1.15-0.39-2.27v-1.51   c0-0.98,0.18-1.68,0.53-2.1c0.32-0.39,0.84-0.58,1.56-0.58c0.76,0,1.32,0.2,1.65,0.61c0.3,0.35,0.45,0.9,0.45,1.63h-1.3   c0-0.42-0.05-0.73-0.16-0.93s-0.27-0.3-0.49-0.3c-0.31,0-0.53,0.1-0.67,0.3s-0.23,0.51-0.27,0.93v2.39c0,0.53,0.07,0.92,0.21,1.16   s0.36,0.36,0.65,0.36c0.27,0,0.46-0.13,0.57-0.39c0.1-0.26,0.16-0.66,0.16-1.21H76.38z M65.79,47.49H62.1v-6.85h3.69v1.08h-2.38   v1.58h2.16v1.01h-2.16v2.1h2.38V47.49z M55.55,45.33c0.02,0.08,0.03,0.18,0.04,0.29s0.01,0.17,0.01,0.18   c0,0.56-0.22,1.02-0.67,1.38c-0.41,0.32-0.9,0.49-1.48,0.49s-1.07-0.17-1.46-0.51c-0.44-0.38-0.66-0.93-0.66-1.62   c0-0.13,0.01-0.27,0.03-0.41h1.3c-0.01,0.12-0.01,0.26-0.01,0.39c0,0.37,0.08,0.65,0.25,0.84c0.15,0.17,0.35,0.26,0.58,0.26   c0.21,0,0.4-0.07,0.56-0.2c0.16-0.13,0.24-0.31,0.24-0.51c0-0.16-0.05-0.33-0.16-0.49c-0.1-0.16-0.28-0.34-0.53-0.52   c-0.34-0.23-0.68-0.47-1.03-0.71c-0.39-0.28-0.67-0.55-0.85-0.82c-0.24-0.34-0.36-0.73-0.36-1.16c0-0.55,0.19-0.98,0.56-1.3   c0.37-0.31,0.82-0.47,1.34-0.47c0.58,0,1.07,0.19,1.47,0.57c0.45,0.43,0.68,1.02,0.68,1.78h-1.23c0-0.42-0.09-0.73-0.26-0.95   c-0.15-0.18-0.33-0.28-0.55-0.28c-0.19,0-0.36,0.07-0.5,0.2c-0.14,0.13-0.22,0.29-0.22,0.46c0,0.12,0.03,0.24,0.1,0.36   s0.18,0.24,0.34,0.36c0.08,0.06,0.4,0.27,0.97,0.61c0.42,0.26,0.73,0.49,0.94,0.71C55.3,44.57,55.48,44.93,55.55,45.33z"></path>
</g>
</svg>